<svg width="40" height="40" viewBox="0 0 40 40" fill="none" xmlns="http://www.w3.org/2000/svg">
<path d="M4.19 35C4.19 35.4474 4.55265 35.81 5 35.81L12.29 35.81C12.7374 35.81 13.1 35.4474 13.1 35C13.1 34.5526 12.7374 34.19 12.29 34.19L5.81 34.19L5.81 27.71C5.81 27.2626 5.44735 26.9 5 26.9C4.55265 26.9 4.19 27.2626 4.19 27.71L4.19 35ZM35.81 5C35.81 4.55265 35.4473 4.19 35 4.19L27.71 4.19C27.2626 4.19 26.9 4.55265 26.9 5C26.9 5.44735 27.2627 5.81 27.71 5.81L34.19 5.81L34.19 12.29C34.19 12.7373 34.5526 13.1 35 13.1C35.4474 13.1 35.81 12.7374 35.81 12.29L35.81 5ZM5.57276 35.5728L35.5728 5.57276L34.4272 4.42724L4.42724 34.4272L5.57276 35.5728Z" fill="white"/>
</svg>
