<svg width="32" height="30" viewBox="0 0 32 30" fill="none" xmlns="http://www.w3.org/2000/svg">
<rect x="24.5" y="0.5" width="2" height="12" rx="1" fill="white" stroke="white"/>
<rect x="31.5" y="5.5" width="2" height="12" rx="1" transform="rotate(90 31.5 5.5)" fill="white" stroke="white"/>
<path d="M19.1524 18.2189L15.1879 13.2467C15.0801 13.1116 14.9225 13.0245 14.7498 13.0044C14.577 12.9844 14.4033 13.033 14.2668 13.1396C14.1303 13.2463 14.0422 13.4022 14.0219 13.5731C14.0016 13.744 14.0508 13.9158 14.1586 14.0509L17.4805 18.2189H5.78614L9.09928 14.0509C9.15266 13.984 9.19221 13.9074 9.21566 13.8254C9.23912 13.7434 9.24602 13.6577 9.23597 13.5731C9.22593 13.4885 9.19913 13.4066 9.15712 13.3323C9.1151 13.2579 9.05869 13.1924 8.9911 13.1396C8.92352 13.0868 8.84607 13.0477 8.7632 13.0245C8.68033 13.0013 8.59365 12.9945 8.50811 13.0044C8.42258 13.0144 8.33985 13.0409 8.26467 13.0824C8.18949 13.124 8.12332 13.1798 8.06994 13.2467L4.10553 18.2189H1.65564C1.48175 18.2189 1.31499 18.2872 1.19203 18.4088C1.06908 18.5305 1 18.6954 1 18.8674C1 19.0395 1.06908 19.2044 1.19203 19.326C1.31499 19.4477 1.48175 19.516 1.65564 19.516H2.63253L3.8542 26.8382C3.95735 27.4418 4.27302 27.99 4.74537 28.3856C5.21771 28.7812 5.81629 28.9989 6.43522 29H16.5713C17.1903 28.9989 17.7888 28.7812 18.2612 28.3856C18.7335 27.99 19.0492 27.4418 19.1524 26.8382L20.3675 19.5268H21.3444C21.5182 19.5268 21.685 19.4585 21.808 19.3368C21.9309 19.2152 22 19.0503 22 18.8783C22 18.7062 21.9309 18.5413 21.808 18.4197C21.685 18.298 21.5182 18.2297 21.3444 18.2297L19.1524 18.2189ZM17.8651 26.622C17.8135 26.9244 17.6551 27.1989 17.4183 27.3967C17.1814 27.5946 16.8814 27.7031 16.5713 27.7029H6.43522C6.12519 27.7031 5.82512 27.5946 5.58827 27.3967C5.35141 27.1989 5.1931 26.9244 5.14143 26.622L3.96129 19.5203H19.0409L17.8651 26.622Z" fill="white" stroke="white" stroke-width="1.5"/>
</svg>
