<svg width="32" height="25" viewBox="0 0 32 25" fill="none" xmlns="http://www.w3.org/2000/svg">
<path d="M26.9319 8.50216L21.2685 1.35457C21.1145 1.16047 20.8893 1.03522 20.6425 1.00637C20.3957 0.97752 20.1475 1.04744 19.9525 1.20074C19.7575 1.35404 19.6317 1.57817 19.6027 1.82382C19.5737 2.06946 19.644 2.31651 19.798 2.51061L24.5436 8.50216H7.83734L12.5704 2.51061C12.6467 2.4145 12.7032 2.30439 12.7367 2.18654C12.7702 2.0687 12.78 1.94545 12.7657 1.82382C12.7513 1.70218 12.713 1.58455 12.653 1.47765C12.593 1.37074 12.5124 1.27664 12.4159 1.20074C12.3193 1.12483 12.2087 1.0686 12.0903 1.03525C11.9719 1.0019 11.8481 0.992084 11.7259 1.00637C11.6037 1.02065 11.4855 1.05875 11.3781 1.1185C11.2707 1.17824 11.1762 1.25846 11.0999 1.35457L5.43647 8.50216H1.93662C1.68821 8.50216 1.44998 8.60038 1.27433 8.77522C1.09868 8.95006 1 9.18719 1 9.43445C1 9.68171 1.09868 9.91884 1.27433 10.0937C1.44998 10.2685 1.68821 10.3667 1.93662 10.3667H3.33219L5.07743 20.8924C5.22479 21.7601 5.67575 22.5481 6.35052 23.1168C7.0253 23.6855 7.88041 23.9984 8.7646 24H23.2448C24.129 23.9984 24.9841 23.6855 25.6588 23.1168C26.3336 22.5481 26.7846 21.7601 26.9319 20.8924L28.6678 10.3823H30.0634C30.3118 10.3823 30.55 10.2841 30.7257 10.1092C30.9013 9.93438 31 9.69725 31 9.44999C31 9.20273 30.9013 8.9656 30.7257 8.79076C30.55 8.61592 30.3118 8.5177 30.0634 8.5177L26.9319 8.50216ZM25.093 20.5816C25.0192 21.0163 24.7931 21.4109 24.4547 21.6953C24.1163 21.9798 23.6877 22.1357 23.2448 22.1354H8.7646C8.3217 22.1357 7.89303 21.9798 7.55467 21.6953C7.2163 21.4109 6.99014 21.0163 6.91633 20.5816L5.23041 10.373H26.7727L25.093 20.5816Z" fill="white" stroke="white" stroke-width="0.5"/>
</svg>
