<svg width="43" height="34" viewBox="0 0 43 34" fill="none" xmlns="http://www.w3.org/2000/svg">
<path d="M19.4907 33.9998H18.2046C17.4937 33.9979 16.8123 33.7146 16.3096 33.2118C15.8069 32.7091 15.5236 32.0278 15.5216 31.3168V23.3786C15.5236 22.6676 15.8069 21.9863 16.3096 21.4836C16.8123 20.9808 17.4937 20.6975 18.2046 20.6956H19.4907C19.7075 20.6971 19.9234 20.7244 20.1338 20.7769C20.7167 20.9181 21.2351 21.2517 21.6053 21.7237C21.9754 22.1957 22.1757 22.7787 22.1737 23.3786V31.3168C22.1718 32.0278 21.8885 32.7091 21.3858 33.2118C20.883 33.7146 20.2017 33.9979 19.4907 33.9998ZM18.2046 22.1738C18.0464 22.1738 17.8898 22.205 17.7436 22.2655C17.5974 22.3261 17.4646 22.4148 17.3527 22.5267C17.2409 22.6386 17.1521 22.7714 17.0916 22.9175C17.031 23.0637 16.9999 23.2204 16.9999 23.3786V31.3168C16.9999 31.475 17.031 31.6317 17.0916 31.7779C17.1521 31.924 17.2409 32.0568 17.3527 32.1687C17.4646 32.2806 17.5974 32.3693 17.7436 32.4299C17.8898 32.4904 18.0464 32.5216 18.2046 32.5216H19.4907C19.6489 32.5216 19.8056 32.4904 19.9518 32.4299C20.0979 32.3693 20.2308 32.2806 20.3426 32.1687C20.4545 32.0568 20.5432 31.924 20.6038 31.7779C20.6643 31.6317 20.6955 31.475 20.6955 31.3168V23.3786C20.6951 23.1095 20.6046 22.8484 20.4385 22.6367C20.2724 22.4251 20.0402 22.2751 19.779 22.2108C19.6832 22.2004 19.5865 22.2004 19.4907 22.2108L18.2046 22.1738Z" fill="white"/>
<path d="M40.1863 33.9998H38.9002C38.1892 33.9979 37.5079 33.7146 37.0052 33.2118C36.5024 32.7091 36.2191 32.0278 36.2172 31.3168V23.3786C36.2153 22.7787 36.4155 22.1957 36.7857 21.7237C37.1558 21.2517 37.6742 20.9181 38.2572 20.7769C38.4675 20.7244 38.6834 20.6971 38.9002 20.6956H40.1863C40.8973 20.6975 41.5786 20.9808 42.0813 21.4836C42.5841 21.9863 42.8674 22.6676 42.8693 23.3786V31.3168C42.8674 32.0278 42.5841 32.7091 42.0813 33.2118C41.5786 33.7146 40.8973 33.9979 40.1863 33.9998ZM38.9002 22.1738C38.8044 22.1634 38.7078 22.1634 38.6119 22.1738C38.3445 22.2396 38.1076 22.3951 37.9408 22.6143C37.7741 22.8335 37.6875 23.1033 37.6954 23.3786V31.3168C37.6954 31.475 37.7266 31.6317 37.7871 31.7779C37.8477 31.924 37.9364 32.0568 38.0483 32.1687C38.1602 32.2806 38.293 32.3693 38.4392 32.4299C38.5853 32.4904 38.742 32.5216 38.9002 32.5216H40.1863C40.5058 32.5216 40.8123 32.3947 41.0382 32.1687C41.2641 31.9428 41.3911 31.6363 41.3911 31.3168V23.3786C41.3911 23.2204 41.3599 23.0637 41.2994 22.9175C41.2388 22.7714 41.1501 22.6386 41.0382 22.5267C40.9263 22.4148 40.7935 22.3261 40.6473 22.2655C40.5012 22.205 40.3445 22.1738 40.1863 22.1738H38.9002Z" fill="white"/>
<path d="M14.0434 30.3041H0V21.4346H14.0434V30.3041ZM1.47825 28.8258H12.5652V22.9128H1.47825V28.8258Z" fill="white"/>
<path d="M14.0434 28.8259H12.5652V33.9998H14.0434V28.8259Z" fill="white"/>
<path d="M1.47825 28.8259H0V33.9998H1.47825V28.8259Z" fill="white"/>
<path d="M35.4781 33.9997H22.9129C22.3249 33.9997 21.7609 33.7661 21.345 33.3502C20.9292 32.9344 20.6956 32.3704 20.6956 31.7823V27.3475H37.6955V31.7823C37.6955 32.3704 37.4619 32.9344 37.046 33.3502C36.6302 33.7661 36.0662 33.9997 35.4781 33.9997ZM22.1738 28.8258V31.7823C22.1738 31.9783 22.2517 32.1663 22.3903 32.3049C22.5289 32.4436 22.7169 32.5214 22.9129 32.5214H35.4781C35.6741 32.5214 35.8621 32.4436 36.0007 32.3049C36.1393 32.1663 36.2172 31.9783 36.2172 31.7823V28.8258H22.1738Z" fill="white"/>
<path d="M37.6955 28.826H20.6956V26.6086C20.6956 25.6285 21.0849 24.6885 21.778 23.9954C22.471 23.3023 23.411 22.913 24.3912 22.913H33.9998C34.98 22.913 35.92 23.3023 36.613 23.9954C37.3061 24.6885 37.6955 25.6285 37.6955 26.6086V28.826ZM22.1738 27.3477H36.2172V26.6086C36.2172 26.0205 35.9836 25.4565 35.5678 25.0407C35.1519 24.6248 34.5879 24.3912 33.9998 24.3912H24.3912C23.8031 24.3912 23.2391 24.6248 22.8233 25.0407C22.4074 25.4565 22.1738 26.0205 22.1738 26.6086V27.3477Z" fill="white"/>
<path d="M37.6953 26.6085H36.2171C36.2171 26.0204 35.9835 25.4564 35.5676 25.0405C35.1518 24.6247 34.5878 24.3911 33.9997 24.3911H24.3911C23.803 24.3911 23.239 24.6247 22.8231 25.0405C22.4073 25.4564 22.1737 26.0204 22.1737 26.6085H20.6954V23.3785C20.695 23.1094 20.6045 22.8483 20.4384 22.6366C20.2723 22.425 20.0401 22.275 19.7789 22.2107L19.2172 22.0776V16.2607C19.2172 14.8885 19.7623 13.5725 20.7326 12.6022C21.7029 11.6319 23.0189 11.0868 24.3911 11.0868H33.9997C35.3719 11.0868 36.6879 11.6319 37.6582 12.6022C38.6285 13.5725 39.1736 14.8885 39.1736 16.2607V22.0776L38.6119 22.2107C38.3506 22.275 38.1185 22.425 37.9524 22.6366C37.7863 22.8483 37.6958 23.1094 37.6953 23.3785V26.6085ZM24.3911 22.9128H33.9997C34.7993 22.9128 35.5774 23.1722 36.2171 23.6519V23.3785C36.215 22.881 36.3524 22.393 36.6137 21.9697C36.875 21.5464 37.2497 21.2048 37.6953 20.9837V16.2607C37.6953 15.2805 37.306 14.3405 36.6129 13.6475C35.9198 12.9544 34.9798 12.565 33.9997 12.565H24.3911C23.4109 12.565 22.4709 12.9544 21.7778 13.6475C21.0848 14.3405 20.6954 15.2805 20.6954 16.2607V20.9837C21.141 21.2048 21.5158 21.5464 21.7771 21.9697C22.0384 22.393 22.1758 22.881 22.1737 23.3785V23.6519C22.8134 23.1722 23.5914 22.9128 24.3911 22.9128Z" fill="white"/>
<path d="M8.86958 25.1301H5.17395V26.6084H8.86958V25.1301Z" fill="white"/>
<path d="M9.42392 22.9129H4.61959L2.71265 16.2607H11.3309L9.42392 22.9129ZM5.72828 21.4346H8.31523L9.36479 17.739H4.67872L5.72828 21.4346Z" fill="white"/>
<path d="M7.02184 17.739C6.83312 17.7376 6.64498 17.7178 6.46011 17.6799C5.07474 17.444 3.8165 16.7282 2.90573 15.658C1.99495 14.5878 1.48968 13.2313 1.47839 11.826V11.0869H2.21752C3.59285 11.0797 4.927 11.5558 5.98707 12.4321L6.26054 12.6464V12.9938C6.25596 13.8936 6.52114 14.7741 7.02184 15.5216C7.53119 14.7793 7.80663 13.9015 7.81271 13.0012V12.6538L8.08619 12.4395C9.13742 11.5671 10.4601 11.0887 11.8262 11.0869H12.5653V11.826C12.5706 13.2561 12.0613 14.6404 11.1303 15.726C10.1994 16.8116 8.90904 17.5261 7.49489 17.739C7.33759 17.7547 7.17914 17.7547 7.02184 17.739ZM9.27618 13.3412C9.22188 14.2261 8.96927 15.0875 8.53705 15.8616C9.18956 15.5628 9.7598 15.1101 10.1988 14.5423C10.6378 13.9746 10.9325 13.3088 11.0575 12.6021C10.4152 12.7139 9.80631 12.9691 9.27618 13.3486V13.3412ZM3.00099 12.6021C3.1347 13.3055 3.43269 13.9674 3.87068 14.5338C4.30867 15.1003 4.87427 15.5552 5.52142 15.8616C5.09129 15.0867 4.83882 14.2257 4.78229 13.3412C4.25084 12.9669 3.64208 12.7169 3.00099 12.6095V12.6021Z" fill="white"/>
<path d="M7.02178 17.6726L6.497 17.1552C6.37135 17.0222 6.2457 16.8892 6.12744 16.7487C5.17895 15.6034 4.69128 14.1457 4.75962 12.6601C4.82795 11.1746 5.44737 9.76786 6.497 8.71441L7.02178 8.19702L7.54656 8.71441C8.10259 9.26712 8.54314 9.92488 8.84261 10.6494C9.14207 11.374 9.29446 12.1508 9.2909 12.9348V12.9718C9.28672 14.3432 8.80595 15.6705 7.93091 16.7265C7.79787 16.8892 7.67222 17.0222 7.54656 17.1552L7.02178 17.6726ZM7.02178 10.3848C6.50695 11.1356 6.2314 12.0245 6.2314 12.9348C6.2314 13.8451 6.50695 14.7341 7.02178 15.4848C7.53113 14.7425 7.80658 13.8646 7.81265 12.9644H8.55178H7.81265C7.82334 12.0433 7.54692 11.1417 7.02178 10.3848Z" fill="white"/>
<path d="M16.9999 8.13037H15.5216V25.8694H16.9999V8.13037Z" fill="white"/>
<path d="M22.2475 9.60865H10.2737L11.1532 0H21.368L22.2475 9.60865ZM11.8998 8.13039H20.6215L20.0228 1.47825H12.4985L11.8998 8.13039Z" fill="white"/>
</svg>
