<svg width="25" height="23" viewBox="0 0 25 23" fill="none" xmlns="http://www.w3.org/2000/svg">
<path d="M0 20.5357C0 20.0483 0.146622 19.5719 0.421326 19.1666C0.69603 18.7614 1.08648 18.4455 1.54329 18.259C2.00011 18.0725 2.50277 18.0237 2.98773 18.1188C3.47268 18.2139 3.91814 18.4486 4.26777 18.7932C4.6174 19.1378 4.8555 19.5769 4.95196 20.055C5.04843 20.533 4.99892 21.0285 4.8097 21.4788C4.62048 21.929 4.30005 22.3139 3.88893 22.5847C3.4778 22.8555 2.99445 23 2.5 23C1.83696 23 1.20107 22.7404 0.732233 22.2782C0.263392 21.8161 0 21.1893 0 20.5357ZM2.5 4.92857C2.99445 4.92857 3.4778 4.78404 3.88893 4.51327C4.30005 4.24249 4.62048 3.85762 4.8097 3.40733C4.99892 2.95704 5.04843 2.46155 4.95196 1.98353C4.8555 1.5055 4.6174 1.06641 4.26777 0.721774C3.91814 0.377137 3.47268 0.142437 2.98773 0.0473517C2.50277 -0.0477333 2.00011 0.00106773 1.54329 0.187584C1.08648 0.3741 0.69603 0.689953 0.421326 1.0952C0.146622 1.50045 0 1.9769 0 2.46429C0 3.11786 0.263392 3.74466 0.732233 4.2068C1.20107 4.66894 1.83696 4.92857 2.5 4.92857ZM2.5 13.9643C2.99445 13.9643 3.4778 13.8198 3.88893 13.549C4.30005 13.2782 4.62048 12.8933 4.8097 12.443C4.99892 11.9928 5.04843 11.4973 4.95196 11.0192C4.8555 10.5412 4.6174 10.1021 4.26777 9.75749C3.91814 9.41285 3.47268 9.17815 2.98773 9.08307C2.50277 8.98798 2.00011 9.03678 1.54329 9.2233C1.08648 9.40981 0.69603 9.72567 0.421326 10.1309C0.146622 10.5362 0 11.0126 0 11.5C0 12.1536 0.263392 12.7804 0.732233 13.2425C1.20107 13.7047 1.83696 13.9643 2.5 13.9643ZM10.8333 4.10714H23.3333C23.7754 4.10714 24.1993 3.93406 24.5118 3.62596C24.8244 3.31787 25 2.9 25 2.46429C25 2.02857 24.8244 1.61071 24.5118 1.30261C24.1993 0.994516 23.7754 0.82143 23.3333 0.82143H10.8333C10.3913 0.82143 9.96738 0.994516 9.65482 1.30261C9.34226 1.61071 9.16667 2.02857 9.16667 2.46429C9.16667 2.9 9.34226 3.31787 9.65482 3.62596C9.96738 3.93406 10.3913 4.10714 10.8333 4.10714ZM10.8333 13.1429H23.3333C23.7754 13.1429 24.1993 12.9698 24.5118 12.6617C24.8244 12.3536 25 11.9357 25 11.5C25 11.0643 24.8244 10.6464 24.5118 10.3383C24.1993 10.0302 23.7754 9.85714 23.3333 9.85714H10.8333C10.3913 9.85714 9.96738 10.0302 9.65482 10.3383C9.34226 10.6464 9.16667 11.0643 9.16667 11.5C9.16667 11.9357 9.34226 12.3536 9.65482 12.6617C9.96738 12.9698 10.3913 13.1429 10.8333 13.1429ZM10.8333 22.1786H23.3333C23.7754 22.1786 24.1993 22.0055 24.5118 21.6974C24.8244 21.3893 25 20.9714 25 20.5357C25 20.1 24.8244 19.6821 24.5118 19.374C24.1993 19.0659 23.7754 18.8929 23.3333 18.8929H10.8333C10.3913 18.8929 9.96738 19.0659 9.65482 19.374C9.34226 19.6821 9.16667 20.1 9.16667 20.5357C9.16667 20.9714 9.34226 21.3893 9.65482 21.6974C9.96738 22.0055 10.3913 22.1786 10.8333 22.1786Z" fill="#3E8087"/>
</svg>
