<svg width="38" height="34" viewBox="0 0 38 34" fill="none" xmlns="http://www.w3.org/2000/svg">
<path d="M30 1.5C30 0.671573 30.6716 0 31.5 0C32.3284 0 33 0.671573 33 1.5V11.5C33 12.3284 32.3284 13 31.5 13C30.6716 13 30 12.3284 30 11.5V1.5Z" fill="#3E8087"/>
<path d="M36.5 5C37.3284 5 38 5.67157 38 6.5C38 7.32843 37.3284 8 36.5 8L26.5 8C25.6716 8 25 7.32843 25 6.5C25 5.67157 25.6716 5 26.5 5L36.5 5Z" fill="#3E8087"/>
<path d="M0 31.5357C0 31.0483 0.146622 30.5719 0.421326 30.1666C0.69603 29.7614 1.08648 29.4455 1.54329 29.259C2.00011 29.0725 2.50277 29.0237 2.98773 29.1188C3.47268 29.2139 3.91814 29.4486 4.26777 29.7932C4.6174 30.1378 4.8555 30.5769 4.95196 31.055C5.04843 31.533 4.99892 32.0285 4.8097 32.4788C4.62048 32.929 4.30005 33.3139 3.88893 33.5847C3.4778 33.8555 2.99445 34 2.5 34C1.83696 34 1.20107 33.7404 0.732233 33.2782C0.263392 32.8161 0 32.1893 0 31.5357ZM2.5 15.9286C2.99445 15.9286 3.4778 15.784 3.88893 15.5133C4.30005 15.2425 4.62048 14.8576 4.8097 14.4073C4.99892 13.957 5.04843 13.4616 4.95196 12.9835C4.8555 12.5055 4.6174 12.0664 4.26777 11.7218C3.91814 11.3771 3.47268 11.1424 2.98773 11.0474C2.50277 10.9523 2.00011 11.0011 1.54329 11.1876C1.08648 11.3741 0.69603 11.69 0.421326 12.0952C0.146622 12.5005 0 12.9769 0 13.4643C0 14.1179 0.263392 14.7447 0.732233 15.2068C1.20107 15.6689 1.83696 15.9286 2.5 15.9286ZM2.5 24.9643C2.99445 24.9643 3.4778 24.8198 3.88893 24.549C4.30005 24.2782 4.62048 23.8933 4.8097 23.443C4.99892 22.9928 5.04843 22.4973 4.95196 22.0192C4.8555 21.5412 4.6174 21.1021 4.26777 20.7575C3.91814 20.4129 3.47268 20.1782 2.98773 20.0831C2.50277 19.988 2.00011 20.0368 1.54329 20.2233C1.08648 20.4098 0.69603 20.7257 0.421326 21.1309C0.146622 21.5362 0 22.0126 0 22.5C0 23.1536 0.263392 23.7804 0.732233 24.2425C1.20107 24.7047 1.83696 24.9643 2.5 24.9643ZM10.8333 15.1071H23.3333C23.7754 15.1071 24.1993 14.9341 24.5118 14.626C24.8244 14.3179 25 13.9 25 13.4643C25 13.0286 24.8244 12.6107 24.5118 12.3026C24.1993 11.9945 23.7754 11.8214 23.3333 11.8214H10.8333C10.3913 11.8214 9.96738 11.9945 9.65482 12.3026C9.34226 12.6107 9.16667 13.0286 9.16667 13.4643C9.16667 13.9 9.34226 14.3179 9.65482 14.626C9.96738 14.9341 10.3913 15.1071 10.8333 15.1071ZM10.8333 24.1429H23.3333C23.7754 24.1429 24.1993 23.9698 24.5118 23.6617C24.8244 23.3536 25 22.9357 25 22.5C25 22.0643 24.8244 21.6464 24.5118 21.3383C24.1993 21.0302 23.7754 20.8571 23.3333 20.8571H10.8333C10.3913 20.8571 9.96738 21.0302 9.65482 21.3383C9.34226 21.6464 9.16667 22.0643 9.16667 22.5C9.16667 22.9357 9.34226 23.3536 9.65482 23.6617C9.96738 23.9698 10.3913 24.1429 10.8333 24.1429ZM10.8333 33.1786H23.3333C23.7754 33.1786 24.1993 33.0055 24.5118 32.6974C24.8244 32.3893 25 31.9714 25 31.5357C25 31.1 24.8244 30.6821 24.5118 30.374C24.1993 30.0659 23.7754 29.8929 23.3333 29.8929H10.8333C10.3913 29.8929 9.96738 30.0659 9.65482 30.374C9.34226 30.6821 9.16667 31.1 9.16667 31.5357C9.16667 31.9714 9.34226 32.3893 9.65482 32.6974C9.96738 33.0055 10.3913 33.1786 10.8333 33.1786Z" fill="#3E8087"/>
</svg>
