<svg width="24" height="17" viewBox="0 0 24 17" fill="none" xmlns="http://www.w3.org/2000/svg">
<path fill-rule="evenodd" clip-rule="evenodd" d="M22.6667 0C22.2987 0 21.9653 0.158676 21.7227 0.416509L9.25065 13.668L2.18669 7.41199L2.17599 7.42617C1.94399 7.22217 1.65867 7.08333 1.33333 7.08333C0.597333 7.08333 0 7.718 0 8.5C0 8.93633 0.197348 9.31316 0.490681 9.57383L0.47998 9.58801L8.47998 16.6713L8.49068 16.6572C8.72268 16.8612 9.008 17 9.33333 17C9.70133 17 10.0347 16.8413 10.2773 16.5835L23.608 2.41968C23.8507 2.16184 24 1.80767 24 1.41667C24 0.634667 23.4027 0 22.6667 0Z" fill="white"/>
</svg>
