<svg width="30" height="28" viewBox="0 0 30 28" fill="none" xmlns="http://www.w3.org/2000/svg">
<path d="M0 3.1746C0 2.64762 0.420312 2.22222 0.9375 2.22222H19.05C19.4484 0.934921 20.6328 0 22.0312 0C23.4297 0 24.6141 0.934921 25.0125 2.22222H29.0625C29.5797 2.22222 30 2.64921 30 3.1746C30 3.7 29.5797 4.12698 29.0625 4.12698H25.0125C24.6141 5.41429 23.4297 6.34921 22.0312 6.34921C20.6328 6.34921 19.4484 5.41429 19.05 4.12698H0.9375C0.41875 4.12698 0 3.70159 0 3.1746ZM29.0625 12.9365H10.95C10.5516 11.6492 9.36719 10.7143 7.96875 10.7143C6.57031 10.7143 5.38594 11.6492 4.9875 12.9365H0.9375C0.41875 12.9365 0 13.3635 0 13.8889C0 14.4143 0.420312 14.8413 0.9375 14.8413H4.9875C5.38594 16.1286 6.57031 17.0635 7.96875 17.0635C9.36719 17.0635 10.5516 16.1286 10.95 14.8413H29.0625C29.5797 14.8413 30 14.4143 30 13.8889C30 13.3635 29.5797 12.9365 29.0625 12.9365ZM29.0625 23.6508H25.0125C24.6141 22.3619 23.4297 21.4286 22.0312 21.4286C20.6328 21.4286 19.4469 22.3635 19.05 23.6508H0.9375C0.41875 23.6508 0 24.0778 0 24.6032C0 25.1286 0.420312 25.5556 0.9375 25.5556H19.05C19.4484 26.8444 20.6328 27.7778 22.0312 27.7778C23.4297 27.7778 24.6156 26.8429 25.0125 25.5556H29.0625C29.5797 25.5556 30 25.1286 30 24.6032C30 24.0778 29.5797 23.6508 29.0625 23.6508Z" fill="white"/>
</svg>
