<svg width="40" height="40" viewBox="0 0 40 40" fill="none" xmlns="http://www.w3.org/2000/svg">
<circle cx="20" cy="20" r="13" fill="#3E8087"/>
<path d="M19.3369 20.8848C19.3369 22.2611 19.0521 23.3138 18.4824 24.043C17.9128 24.7721 17.0788 25.1367 15.9805 25.1367C14.8958 25.1367 14.0664 24.779 13.4922 24.0635C12.918 23.348 12.624 22.3226 12.6104 20.9873V19.1553C12.6104 17.7653 12.8975 16.7103 13.4717 15.9902C14.0505 15.2702 14.8822 14.9102 15.9668 14.9102C17.0514 14.9102 17.8809 15.2679 18.4551 15.9834C19.0293 16.6943 19.3232 17.7174 19.3369 19.0527V20.8848ZM17.3613 18.875C17.3613 18.0501 17.2474 17.4508 17.0195 17.0771C16.7962 16.6989 16.4453 16.5098 15.9668 16.5098C15.502 16.5098 15.1579 16.6898 14.9346 17.0498C14.7158 17.4053 14.5996 17.9635 14.5859 18.7246V21.1445C14.5859 21.9557 14.6953 22.5596 14.9141 22.9561C15.1374 23.348 15.4928 23.5439 15.9805 23.5439C16.4635 23.5439 16.8122 23.3548 17.0264 22.9766C17.2406 22.5983 17.3522 22.0195 17.3613 21.2402V18.875ZM27.376 20.8848C27.376 22.2611 27.0911 23.3138 26.5215 24.043C25.9518 24.7721 25.1178 25.1367 24.0195 25.1367C22.9349 25.1367 22.1055 24.779 21.5312 24.0635C20.957 23.348 20.6631 22.3226 20.6494 20.9873V19.1553C20.6494 17.7653 20.9365 16.7103 21.5107 15.9902C22.0895 15.2702 22.9212 14.9102 24.0059 14.9102C25.0905 14.9102 25.9199 15.2679 26.4941 15.9834C27.0684 16.6943 27.3623 17.7174 27.376 19.0527V20.8848ZM25.4004 18.875C25.4004 18.0501 25.2865 17.4508 25.0586 17.0771C24.8353 16.6989 24.4844 16.5098 24.0059 16.5098C23.541 16.5098 23.1969 16.6898 22.9736 17.0498C22.7549 17.4053 22.6387 17.9635 22.625 18.7246V21.1445C22.625 21.9557 22.7344 22.5596 22.9531 22.9561C23.1764 23.348 23.5319 23.5439 24.0195 23.5439C24.5026 23.5439 24.8512 23.3548 25.0654 22.9766C25.2796 22.5983 25.3913 22.0195 25.4004 21.2402V18.875Z" fill="white"/>
</svg>
