<svg width="40" height="40" viewBox="0 0 40 40" fill="none" xmlns="http://www.w3.org/2000/svg">
<path d="M14.2433 33.7315H13.1943C12.6144 33.7299 12.0587 33.4988 11.6487 33.0888C11.2386 32.6787 11.0076 32.123 11.006 31.5431V25.0684C11.0076 24.4885 11.2386 23.9328 11.6487 23.5228C12.0587 23.1127 12.6144 22.8816 13.1943 22.88H14.2433C14.4202 22.8813 14.5962 22.9035 14.7678 22.9464C15.2433 23.0615 15.6661 23.3336 15.968 23.7186C16.2699 24.1036 16.4332 24.5792 16.4317 25.0684V31.5431C16.4301 32.123 16.199 32.6787 15.789 33.0888C15.3789 33.4988 14.8232 33.7299 14.2433 33.7315ZM13.1943 24.0858C13.0653 24.0858 12.9375 24.1112 12.8183 24.1606C12.6991 24.2099 12.5908 24.2823 12.4995 24.3736C12.4083 24.4648 12.3359 24.5731 12.2865 24.6924C12.2371 24.8116 12.2117 24.9394 12.2117 25.0684V31.5431C12.2117 31.6721 12.2371 31.7999 12.2865 31.9191C12.3359 32.0384 12.4083 32.1467 12.4995 32.2379C12.5908 32.3292 12.6991 32.4016 12.8183 32.451C12.9375 32.5003 13.0653 32.5258 13.1943 32.5258H14.2433C14.3724 32.5258 14.5001 32.5003 14.6194 32.451C14.7386 32.4016 14.8469 32.3292 14.9382 32.2379C15.0294 32.1467 15.1018 32.0384 15.1512 31.9191C15.2006 31.7999 15.226 31.6721 15.226 31.5431V25.0684C15.2256 24.849 15.1518 24.636 15.0163 24.4633C14.8809 24.2907 14.6915 24.1684 14.4784 24.1159C14.4003 24.1074 14.3215 24.1074 14.2433 24.1159L13.1943 24.0858Z" fill="white" stroke="white" stroke-width="0.7"/>
<path d="M31.1234 33.7315H30.0744C29.4945 33.7299 28.9388 33.4988 28.5287 33.0888C28.1187 32.6787 27.8876 32.123 27.886 31.5431V25.0684C27.8845 24.5792 28.0478 24.1036 28.3497 23.7186C28.6516 23.3336 29.0744 23.0615 29.5499 22.9464C29.7215 22.9035 29.8976 22.8813 30.0744 22.88H31.1234C31.7033 22.8816 32.259 23.1127 32.669 23.5228C33.0791 23.9328 33.3101 24.4885 33.3117 25.0684V31.5431C33.3101 32.123 33.0791 32.6787 32.669 33.0888C32.259 33.4988 31.7033 33.7299 31.1234 33.7315ZM30.0744 24.0858C29.9963 24.0773 29.9174 24.0773 29.8393 24.0858C29.6211 24.1394 29.4279 24.2662 29.2919 24.445C29.1559 24.6238 29.0852 24.8438 29.0917 25.0684V31.5431C29.0917 31.6721 29.1172 31.7999 29.1665 31.9191C29.2159 32.0384 29.2883 32.1467 29.3795 32.2379C29.4708 32.3292 29.5791 32.4016 29.6983 32.451C29.8176 32.5003 29.9453 32.5258 30.0744 32.5258H31.1234C31.384 32.5258 31.6339 32.4222 31.8182 32.2379C32.0025 32.0537 32.106 31.8037 32.106 31.5431V25.0684C32.106 24.9394 32.0806 24.8116 32.0312 24.6924C31.9818 24.5731 31.9095 24.4648 31.8182 24.3736C31.727 24.2823 31.6186 24.2099 31.4994 24.1606C31.3802 24.1112 31.2524 24.0858 31.1234 24.0858H30.0744Z" fill="white" stroke="white" stroke-width="0.7"/>
<path d="M27.2832 33.7313H17.0346C16.555 33.7313 16.095 33.5408 15.7558 33.2016C15.4166 32.8624 15.2261 32.4024 15.2261 31.9228V28.3056H29.0918V31.9228C29.0918 32.4024 28.9012 32.8624 28.5621 33.2016C28.2229 33.5408 27.7629 33.7313 27.2832 33.7313ZM16.4318 29.5113V31.9228C16.4318 32.0827 16.4953 32.236 16.6084 32.349C16.7214 32.4621 16.8748 32.5256 17.0346 32.5256H27.2832C27.4431 32.5256 27.5964 32.4621 27.7095 32.349C27.8226 32.236 27.8861 32.0827 27.8861 31.9228V29.5113H16.4318Z" fill="white" stroke="white" stroke-width="0.7"/>
<path d="M29.0918 29.5115H15.2261V27.7029C15.2261 26.9035 15.5436 26.1368 16.1089 25.5715C16.6742 25.0062 17.4409 24.6886 18.2404 24.6886H26.0775C26.8769 24.6886 27.6436 25.0062 28.2089 25.5715C28.7742 26.1368 29.0918 26.9035 29.0918 27.7029V29.5115ZM16.4318 28.3058H27.8861V27.7029C27.8861 27.2232 27.6955 26.7632 27.3564 26.4241C27.0172 26.0849 26.5572 25.8943 26.0775 25.8943H18.2404C17.7607 25.8943 17.3007 26.0849 16.9615 26.4241C16.6223 26.7632 16.4318 27.2232 16.4318 27.7029V28.3058Z" fill="white" stroke="white" stroke-width="0.7"/>
<path d="M29.0917 27.7028H27.886C27.886 27.2231 27.6954 26.7631 27.3562 26.4239C27.0171 26.0847 26.557 25.8942 26.0774 25.8942H18.2402C17.7606 25.8942 17.3006 26.0847 16.9614 26.4239C16.6222 26.7631 16.4317 27.2231 16.4317 27.7028H15.2259V25.0683C15.2256 24.8488 15.1518 24.6358 15.0163 24.4632C14.8808 24.2906 14.6915 24.1683 14.4784 24.1158L14.0202 24.0073V19.2628C14.0202 18.1436 14.4648 17.0702 15.2562 16.2788C16.0476 15.4874 17.121 15.0428 18.2402 15.0428H26.0774C27.1966 15.0428 28.27 15.4874 29.0614 16.2788C29.8528 17.0702 30.2974 18.1436 30.2974 19.2628V24.0073L29.8392 24.1158C29.6261 24.1683 29.4368 24.2906 29.3013 24.4632C29.1658 24.6358 29.092 24.8488 29.0917 25.0683V27.7028ZM18.2402 24.6885H26.0774C26.7296 24.6885 27.3642 24.9 27.886 25.2913V25.0683C27.8843 24.6625 27.9963 24.2645 28.2094 23.9192C28.4226 23.5739 28.7282 23.2953 29.0917 23.115V19.2628C29.0917 18.4633 28.7741 17.6966 28.2088 17.1313C27.6435 16.5661 26.8768 16.2485 26.0774 16.2485H18.2402C17.4408 16.2485 16.6741 16.5661 16.1088 17.1313C15.5435 17.6966 15.2259 18.4633 15.2259 19.2628V23.115C15.5894 23.2953 15.895 23.5739 16.1082 23.9192C16.3213 24.2645 16.4334 24.6625 16.4317 25.0683V25.2913C16.9534 24.9 17.588 24.6885 18.2402 24.6885Z" fill="white" stroke="white" stroke-width="0.7"/>
<path d="M12.2117 12.6314H11.006V27.1H12.2117V12.6314Z" fill="white" stroke="white" stroke-width="0.7"/>
<path d="M16.2922 11.6548C16.3994 12.8265 15.4771 13.8371 14.3005 13.8371H8.91709C7.74053 13.8371 6.81817 12.8265 6.92542 11.6548L7.27667 7.81768C7.37092 6.78806 8.23441 6 9.26834 6H13.9493C14.9832 6 15.8467 6.78806 15.9409 7.81769L16.2922 11.6548ZM8.15001 11.5418C8.09733 12.1271 8.55831 12.6314 9.14598 12.6314H14.0716C14.6593 12.6314 15.1203 12.1271 15.0676 11.5418L14.7593 8.11608C14.7129 7.60061 14.2808 7.20571 13.7633 7.20571H9.4543C8.93675 7.20571 8.50471 7.60061 8.45832 8.11608L8.15001 11.5418Z" fill="white" stroke="white" stroke-width="0.7"/>
</svg>
