<svg width="40" height="40" viewBox="0 0 40 40" fill="none" xmlns="http://www.w3.org/2000/svg">
<path d="M12 19.4355V28.0908C12 28.9601 12.3572 29.7938 12.9931 30.4084C13.6289 31.0231 14.4914 31.3684 15.3906 31.3684H25.6094C26.5086 31.3684 27.3711 31.0231 28.0069 30.4084C28.6428 29.7938 29 28.9601 29 28.0908V19.4355C29 19.0051 28.9123 18.5789 28.7419 18.1812C28.5715 17.7835 28.3218 17.4222 28.0069 17.1179C27.6921 16.8135 27.3183 16.5721 26.9069 16.4074C26.4956 16.2427 26.0547 16.1579 25.6094 16.1579H23.8697C23.6622 16.1579 23.4632 16.2376 23.3165 16.3794C23.1697 16.5213 23.0873 16.7137 23.0873 16.9143C23.0873 17.1149 23.1697 17.3072 23.3165 17.4491C23.4632 17.5909 23.6622 17.6706 23.8697 17.6706H25.6094C26.0936 17.6706 26.558 17.8566 26.9004 18.1875C27.2428 18.5185 27.4351 18.9674 27.4351 19.4355V28.0908C27.4351 28.5589 27.2428 29.0078 26.9004 29.3388C26.558 29.6697 26.0936 29.8557 25.6094 29.8557H15.3906C14.9064 29.8557 14.442 29.6697 14.0996 29.3388C13.7572 29.0078 13.5649 28.5589 13.5649 28.0908V19.4355C13.5649 18.9674 13.7572 18.5185 14.0996 18.1875C14.442 17.8566 14.9064 17.6706 15.3906 17.6706H17.1303C17.3378 17.6706 17.5368 17.5909 17.6835 17.4491C17.8303 17.3072 17.9127 17.1149 17.9127 16.9143C17.9127 16.7137 17.8303 16.5213 17.6835 16.3794C17.5368 16.2376 17.3378 16.1579 17.1303 16.1579H15.3906C14.4914 16.1579 13.6289 16.5032 12.9931 17.1179C12.3572 17.7325 12 18.5662 12 19.4355Z" fill="white" stroke="white" stroke-width="1.1"/>
<path d="M20.6117 21.4916C20.7811 21.4916 20.9436 21.4257 21.0634 21.3084C21.1832 21.1911 21.2505 21.0321 21.2505 20.8662V10.9847L24.0931 13.3696C24.2227 13.4679 24.3859 13.5137 24.549 13.4974C24.7122 13.4812 24.8626 13.4041 24.9693 13.2823C25.0761 13.1604 25.1308 13.003 25.1223 12.8427C25.1137 12.6824 25.0425 12.5314 24.9235 12.421L21.0291 9.15014C20.9134 9.05325 20.7661 9 20.6139 9C20.4616 9 20.3143 9.05325 20.1986 9.15014L16.3 12.421C16.2316 12.4729 16.1747 12.5379 16.1327 12.612C16.0907 12.6861 16.0645 12.7678 16.0558 12.8521C16.047 12.9363 16.0558 13.0215 16.0817 13.1024C16.1076 13.1832 16.15 13.2581 16.2063 13.3224C16.2626 13.3867 16.3317 13.4392 16.4093 13.4766C16.487 13.514 16.5716 13.5355 16.658 13.5399C16.7444 13.5444 16.8308 13.5315 16.9121 13.5022C16.9933 13.473 17.0675 13.4278 17.1304 13.3696L19.9729 10.9847V20.8662C19.9729 21.0321 20.0402 21.1911 20.16 21.3084C20.2798 21.4257 20.4423 21.4916 20.6117 21.4916Z" fill="white" stroke="white" stroke-width="1.2"/>
</svg>
