<svg width="40" height="40" viewBox="0 0 40 40" fill="none" xmlns="http://www.w3.org/2000/svg">
<path d="M19.2876 11.4248H11.2861C10.6798 11.4248 10.0983 11.6657 9.66959 12.0944C9.24086 12.5231 9 13.1046 9 13.7109V29.7139C9 30.3202 9.24086 30.9017 9.66959 31.3304C10.0983 31.7591 10.6798 32 11.2861 32H27.2891C27.8954 32 28.4769 31.7591 28.9056 31.3304C29.3343 30.9017 29.5752 30.3202 29.5752 29.7139V21.7124" stroke="#3E8087" stroke-width="3" stroke-linecap="round" stroke-linejoin="round"/>
<path d="M27.8616 9.71021C28.3163 9.25547 28.9331 9 29.5762 9C30.2193 9 30.836 9.25547 31.2908 9.71021C31.7455 10.165 32.001 10.7817 32.001 11.4248C32.001 12.0679 31.7455 12.6847 31.2908 13.1394L20.4316 23.9985L15.8594 25.1416L17.0024 20.5693L27.8616 9.71021Z" stroke="#3E8087" stroke-width="3" stroke-linecap="round" stroke-linejoin="round"/>
</svg>
