<svg width="40" height="40" viewBox="0 0 40 40" fill="none" xmlns="http://www.w3.org/2000/svg">
<path d="M26.0048 29.24C25.8176 29.4245 25.5654 29.5279 25.3025 29.5279H25.3024C25.0396 29.5279 24.7874 29.4245 24.6002 29.24C24.4138 29.0562 24.307 28.8066 24.3025 28.545V16.5C24.3025 16.2348 24.4078 15.9804 24.5954 15.7929C24.7829 15.6054 25.0373 15.5 25.3025 15.5C25.5677 15.5 25.8221 15.6054 26.0096 15.7929C26.1971 15.9804 26.3025 16.2348 26.3025 16.5V28.545C26.298 28.8066 26.1912 29.0562 26.0048 29.24Z" fill="white" stroke="white"/>
<path d="M32.0018 10.8332H25.6132L24.7914 8.08C24.6094 7.48169 24.2409 6.95719 23.7398 6.58302C23.2387 6.20885 22.6311 6.00458 22.0057 6H17.9989C17.3735 6.00458 16.766 6.20885 16.2649 6.58302C15.7637 6.95719 15.3953 7.48169 15.2132 8.08L14.3914 10.8332H7.99821C7.73347 10.8332 7.47957 10.9384 7.29237 11.1256C7.10517 11.3128 7 11.5667 7 11.8314C7 12.0962 7.10517 12.3501 7.29237 12.5373C7.47957 12.7245 7.73347 12.8296 7.99821 12.8296H9.18679V32.0464C9.19168 32.7738 9.48377 33.4698 9.99943 33.9829C10.5151 34.496 11.2126 34.7845 11.94 34.7857H28.0925C28.8223 34.7845 29.5219 34.494 30.038 33.978C30.554 33.4619 30.8445 32.7623 30.8457 32.0325V12.7971H32.0018C32.2665 12.7971 32.5204 12.692 32.7076 12.5048C32.8948 12.3176 33 12.0637 33 11.7989C32.9994 11.6695 32.973 11.5415 32.9222 11.4225C32.8714 11.3034 32.7974 11.1958 32.7043 11.1058C32.6113 11.0158 32.5013 10.9453 32.3806 10.8985C32.26 10.8517 32.1311 10.8295 32.0018 10.8332ZM17.1446 8.65107C17.2014 8.46675 17.3142 8.30467 17.4673 8.18736C17.6204 8.07005 17.8062 8.00331 17.9989 7.99643H22.0336C22.2308 7.99476 22.4231 8.05858 22.5802 8.17788C22.7373 8.29719 22.8504 8.46524 22.9018 8.65571L23.5425 10.8332H16.4529L17.1446 8.65107ZM28.7796 32.2507C28.7276 32.3999 28.6313 32.5297 28.5035 32.6226C28.3757 32.7155 28.2226 32.7672 28.0646 32.7707H11.94C11.7376 32.7671 11.5446 32.6844 11.4023 32.5404C11.2601 32.3964 11.1798 32.2024 11.1786 32V12.7971H28.8493L28.7796 32.2507Z" fill="white" stroke="white" stroke-width="0.5"/>
</svg>
