<svg width="41" height="40" viewBox="0 0 41 40" fill="none" xmlns="http://www.w3.org/2000/svg">
<path d="M13.2868 15.9643C13.6526 15.9643 14.0183 15.9643 14.3866 15.9669C15.2553 15.9669 16.1214 15.9695 16.99 15.9695C18.0162 15.9722 19.0423 15.9722 20.0684 15.9748C20.8939 15.9748 21.7194 15.9774 22.5448 15.9774C23.0046 15.9774 23.4694 15.9643 23.9291 15.9958C24.0962 16.0058 24.2517 16.0194 24.2517 16.0194C24.9222 16.114 25.58 16.2979 26.2049 16.5685C26.1439 16.5422 26.0829 16.516 26.022 16.4897C26.3852 16.6473 26.7357 16.8338 27.0735 17.0466C27.2361 17.1491 27.3935 17.2594 27.5485 17.3724C27.6639 17.4577 27.7765 17.5468 27.8837 17.643C28.1784 17.9004 28.4527 18.1789 28.7067 18.4784C28.7702 18.552 28.8311 18.6281 28.8895 18.7017C28.9175 18.7385 28.9454 18.7726 28.9734 18.8094C28.9937 18.8357 29.0445 18.904 28.9657 18.7989C28.8768 18.6807 28.9581 18.7884 28.9784 18.8147C29.0953 18.9775 29.207 19.143 29.3112 19.3138C29.5474 19.6974 29.7506 20.0993 29.9208 20.517C29.8954 20.454 29.87 20.3909 29.8446 20.3279C30.1062 20.9741 30.284 21.6519 30.3754 22.3481C30.3652 22.2772 30.3576 22.2089 30.3475 22.1379C30.4364 22.842 30.4364 23.5539 30.3475 24.258C30.3576 24.1871 30.3652 24.1187 30.3754 24.0478C30.284 24.7414 30.1062 25.4218 29.8446 26.068C29.87 26.005 29.8954 25.9419 29.9208 25.8789C29.7684 26.2546 29.588 26.6171 29.3823 26.9665C29.2832 27.1346 29.1766 27.2975 29.0673 27.4578C29.0419 27.4945 29.014 27.534 28.9886 27.5707C28.9708 27.5944 28.9556 27.6154 28.9378 27.639C28.8845 27.7126 29.0496 27.4893 28.9962 27.5629C28.9327 27.6443 28.8718 27.7257 28.8057 27.8045C28.5568 28.1093 28.2876 28.393 27.998 28.6557C27.9269 28.7214 27.8533 28.7844 27.7821 28.8449C27.7466 28.8738 27.7136 28.9027 27.678 28.9316C27.6526 28.9526 27.5866 29.0051 27.6882 28.9237C27.8025 28.8317 27.6983 28.9158 27.6729 28.9368C27.5155 29.0577 27.3554 29.1733 27.1903 29.281C26.8195 29.5253 26.4309 29.7355 26.0271 29.9115C26.088 29.8852 26.149 29.8589 26.2099 29.8327C25.5851 30.1032 24.9298 30.2871 24.2567 30.3817C24.3253 30.3712 24.3914 30.3633 24.4599 30.3528C23.8478 30.4369 23.2306 30.4237 22.616 30.4237C21.7067 30.4237 20.7974 30.4237 19.8881 30.4237C18.7172 30.4237 17.5437 30.4237 16.3728 30.4237C15.334 30.4237 14.2952 30.4237 13.2564 30.4237C12.7458 30.4237 12.2353 30.4132 11.7273 30.4237C11.7197 30.4237 11.7121 30.4237 11.7045 30.4237C11.3057 30.4237 10.9247 30.7863 10.9425 31.2119C10.9603 31.6401 11.2778 32 11.7045 32C12.4715 32 13.2411 32 14.0082 32C15.5956 32 17.1805 32 18.768 32C20.0938 32 21.4197 32 22.748 32C22.9766 32 23.2052 32 23.4338 32C24.653 31.9974 25.8391 31.7163 26.9516 31.204C29.1283 30.2004 30.8123 28.196 31.5438 25.8605C32.2956 23.462 31.9679 20.7482 30.6853 18.6071C29.4331 16.5133 27.325 14.9739 24.9705 14.5456C23.891 14.3486 22.7912 14.3959 21.699 14.3959C20.1319 14.3933 18.5622 14.3907 16.9951 14.3907C15.8217 14.388 14.6508 14.388 13.4773 14.3854C13.4164 14.3854 13.3529 14.3854 13.2919 14.3854C12.8931 14.3854 12.5122 14.7479 12.5299 15.1735C12.5452 15.6044 12.8601 15.9643 13.2868 15.9643Z" fill="#3E8087"/>
<path d="M19.5923 20.6613C18.9142 19.9546 18.2335 19.2479 17.5553 18.5386C16.4784 17.4195 15.404 16.2977 14.3271 15.1786C14.0782 14.9185 13.8292 14.661 13.5803 14.401C13.5803 14.7714 13.5803 15.1444 13.5803 15.5148C14.261 14.816 14.9417 14.1172 15.6199 13.4184C16.6968 12.3124 17.7737 11.2064 18.8481 10.1004C19.0945 9.8456 19.3434 9.59077 19.5898 9.33857C19.8742 9.04696 19.892 8.51104 19.5898 8.22468C19.285 7.93571 18.8151 7.91469 18.5129 8.22468C17.8322 8.92349 17.1515 9.62229 16.4733 10.3211C15.3964 11.4271 14.3195 12.5331 13.2451 13.6391C12.9987 13.8939 12.7498 14.1488 12.5034 14.401C12.2113 14.7004 12.2139 15.2127 12.5034 15.5148C13.1816 16.2215 13.8623 16.9282 14.5404 17.6375C15.6173 18.7567 16.6917 19.8784 17.7687 20.9976C18.0176 21.2577 18.2665 21.5151 18.5154 21.7752C18.7973 22.0668 19.3155 22.0878 19.5923 21.7752C19.8717 21.4626 19.892 20.9739 19.5923 20.6613Z" fill="#3E8087"/>
<path d="M13.2868 15.9643C13.6526 15.9643 14.0183 15.9643 14.3866 15.9669C15.2553 15.9669 16.1214 15.9695 16.99 15.9695C18.0162 15.9722 19.0423 15.9722 20.0684 15.9748C20.8939 15.9748 21.7194 15.9774 22.5448 15.9774C23.0046 15.9774 23.4694 15.9643 23.9291 15.9958C24.0962 16.0058 24.2517 16.0194 24.2517 16.0194C24.9222 16.114 25.58 16.2979 26.2049 16.5685C26.1439 16.5422 26.0829 16.516 26.022 16.4897C26.3852 16.6473 26.7357 16.8338 27.0735 17.0466C27.2361 17.1491 27.3935 17.2594 27.5485 17.3724C27.6639 17.4577 27.7765 17.5468 27.8837 17.643C28.1784 17.9004 28.4527 18.1789 28.7067 18.4784C28.7702 18.552 28.8311 18.6281 28.8895 18.7017C28.9175 18.7385 28.9454 18.7726 28.9734 18.8094C28.9937 18.8357 29.0445 18.904 28.9657 18.7989C28.8768 18.6807 28.9581 18.7884 28.9784 18.8147C29.0953 18.9775 29.207 19.143 29.3112 19.3138C29.5474 19.6974 29.7506 20.0993 29.9208 20.517C29.8954 20.454 29.87 20.3909 29.8446 20.3279C30.1062 20.9741 30.284 21.6519 30.3754 22.3481C30.3652 22.2772 30.3576 22.2089 30.3475 22.1379C30.4364 22.842 30.4364 23.5539 30.3475 24.258C30.3576 24.1871 30.3652 24.1187 30.3754 24.0478C30.284 24.7414 30.1062 25.4218 29.8446 26.068C29.87 26.005 29.8954 25.9419 29.9208 25.8789C29.7684 26.2546 29.588 26.6171 29.3823 26.9665C29.2832 27.1346 29.1766 27.2975 29.0673 27.4578C29.0419 27.4945 29.014 27.534 28.9886 27.5707C28.9708 27.5944 28.9556 27.6154 28.9378 27.639C28.8845 27.7126 29.0496 27.4893 28.9962 27.5629C28.9327 27.6443 28.8718 27.7257 28.8057 27.8045C28.5568 28.1093 28.2876 28.393 27.998 28.6557C27.9269 28.7214 27.8533 28.7844 27.7821 28.8449C27.7466 28.8738 27.7136 28.9027 27.678 28.9316C27.6526 28.9526 27.5866 29.0051 27.6882 28.9237C27.8025 28.8317 27.6983 28.9158 27.6729 28.9368C27.5155 29.0577 27.3554 29.1733 27.1903 29.281C26.8195 29.5253 26.4309 29.7355 26.0271 29.9115C26.088 29.8852 26.149 29.8589 26.2099 29.8327C25.5851 30.1032 24.9298 30.2871 24.2567 30.3817C24.3253 30.3712 24.3914 30.3633 24.4599 30.3528C23.8478 30.4369 23.2306 30.4237 22.616 30.4237C21.7067 30.4237 20.7974 30.4237 19.8881 30.4237C18.7172 30.4237 17.5437 30.4237 16.3728 30.4237C15.334 30.4237 14.2952 30.4237 13.2564 30.4237C12.7458 30.4237 12.2353 30.4132 11.7273 30.4237C11.7197 30.4237 11.7121 30.4237 11.7045 30.4237C11.3057 30.4237 10.9247 30.7863 10.9425 31.2119C10.9603 31.6401 11.2778 32 11.7045 32C12.4715 32 13.2411 32 14.0082 32C15.5956 32 17.1805 32 18.768 32C20.0938 32 21.4197 32 22.748 32C22.9766 32 23.2052 32 23.4338 32C24.653 31.9974 25.8391 31.7163 26.9516 31.204C29.1283 30.2004 30.8123 28.196 31.5438 25.8605C32.2956 23.462 31.9679 20.7482 30.6853 18.6071C29.4331 16.5133 27.325 14.9739 24.9705 14.5456C23.891 14.3486 22.7912 14.3959 21.699 14.3959C20.1319 14.3933 18.5622 14.3907 16.9951 14.3907C15.8217 14.388 14.6508 14.388 13.4773 14.3854C13.4164 14.3854 13.3529 14.3854 13.2919 14.3854C12.8931 14.3854 12.5122 14.7479 12.5299 15.1735C12.5452 15.6044 12.8601 15.9643 13.2868 15.9643Z" stroke="#3E8087"/>
<path d="M19.5923 20.6613C18.9142 19.9546 18.2335 19.2479 17.5553 18.5386C16.4784 17.4195 15.404 16.2977 14.3271 15.1786C14.0782 14.9185 13.8292 14.661 13.5803 14.401C13.5803 14.7714 13.5803 15.1444 13.5803 15.5148C14.261 14.816 14.9417 14.1172 15.6199 13.4184C16.6968 12.3124 17.7737 11.2064 18.8481 10.1004C19.0945 9.8456 19.3434 9.59077 19.5898 9.33857C19.8742 9.04696 19.892 8.51104 19.5898 8.22468C19.285 7.93571 18.8151 7.91469 18.5129 8.22468C17.8322 8.92349 17.1515 9.62229 16.4733 10.3211C15.3964 11.4271 14.3195 12.5331 13.2451 13.6391C12.9987 13.8939 12.7498 14.1488 12.5034 14.401C12.2113 14.7004 12.2139 15.2127 12.5034 15.5148C13.1816 16.2215 13.8623 16.9282 14.5404 17.6375C15.6173 18.7567 16.6917 19.8784 17.7687 20.9976C18.0176 21.2577 18.2665 21.5151 18.5154 21.7752C18.7973 22.0668 19.3155 22.0878 19.5923 21.7752C19.8717 21.4626 19.892 20.9739 19.5923 20.6613Z" stroke="#3E8087"/>
</svg>
