<svg width="40" height="40" viewBox="0 0 40 40" fill="none" xmlns="http://www.w3.org/2000/svg">
<path d="M31.7636 16.3558L25.8658 8.9465C25.7054 8.74529 25.4709 8.61546 25.2139 8.58555C24.9569 8.55565 24.6985 8.62812 24.4954 8.78704C24.2923 8.94595 24.1613 9.17829 24.1311 9.43293C24.1009 9.68757 24.1741 9.94366 24.3345 10.1449L29.2764 16.3558H11.8789L16.8078 10.1449C16.8872 10.0452 16.9461 9.93109 16.9809 9.80894C17.0158 9.68678 17.0261 9.55902 17.0112 9.43293C16.9962 9.30684 16.9563 9.18491 16.8938 9.07409C16.8313 8.96326 16.7474 8.86572 16.6469 8.78704C16.5463 8.70835 16.4311 8.65006 16.3078 8.61549C16.1845 8.58092 16.0556 8.57075 15.9283 8.58555C15.8011 8.60036 15.678 8.63986 15.5662 8.70179C15.4543 8.76372 15.3559 8.84687 15.2765 8.9465L9.37867 16.3558H5.73401C5.47532 16.3558 5.22723 16.4576 5.04431 16.6388C4.86139 16.8201 4.75863 17.0659 4.75863 17.3222C4.75863 17.5785 4.86139 17.8243 5.04431 18.0056C5.22723 18.1868 5.47532 18.2886 5.73401 18.2886H7.18732L9.00478 29.1996C9.15824 30.0992 9.62785 30.916 10.3306 31.5055C11.0333 32.0951 11.9237 32.4194 12.8445 32.421H27.9239C28.8446 32.4194 29.7351 32.0951 30.4378 31.5055C31.1405 30.916 31.6101 30.0992 31.7636 29.1996L33.5713 18.3047H35.0246C35.2833 18.3047 35.5314 18.2029 35.7143 18.0217C35.8972 17.8404 36 17.5946 36 17.3383C36 17.082 35.8972 16.8362 35.7143 16.655C35.5314 16.4737 35.2833 16.3719 35.0246 16.3719L31.7636 16.3558ZM29.8486 28.8775C29.7717 29.3281 29.5362 29.7371 29.1839 30.032C28.8315 30.3269 28.3851 30.4885 27.9239 30.4882H12.8445C12.3833 30.4885 11.9369 30.3269 11.5845 30.032C11.2322 29.7371 10.9966 29.3281 10.9198 28.8775L9.16409 18.2951H31.5978L29.8486 28.8775Z" fill="white" stroke="white"/>
</svg>
