<svg width="40" height="40" viewBox="0 0 40 40" fill="none" xmlns="http://www.w3.org/2000/svg">
<path d="M11 12.5C11 11.6716 11.6716 11 12.5 11C13.3284 11 14 11.6716 14 12.5V27.5C14 28.3284 13.3284 29 12.5 29C11.6716 29 11 28.3284 11 27.5V12.5Z" fill="white"/>
<path d="M19 17.5C19 16.6716 19.6716 16 20.5 16C21.3284 16 22 16.6716 22 17.5V27.5C22 28.3284 21.3284 29 20.5 29C19.6716 29 19 28.3284 19 27.5V17.5Z" fill="white"/>
<path d="M27 23.5C27 22.6716 27.6716 22 28.5 22C29.3284 22 30 22.6716 30 23.5V27.5C30 28.3284 29.3284 29 28.5 29C27.6716 29 27 28.3284 27 27.5V23.5Z" fill="white"/>
</svg>
