<svg width="40" height="40" viewBox="0 0 40 40" fill="none" xmlns="http://www.w3.org/2000/svg">
<path d="M24.056 17.9903C25.4741 16.8514 26.3796 15.1292 26.3796 13.2047C26.3796 9.78366 23.5178 7 20.0002 7C16.4826 7 13.6204 9.78366 13.6204 13.2047C13.6204 15.1288 14.5259 16.8514 15.944 17.9903C11.8807 19.5641 9 23.4257 9 27.9315C9 31.6726 14.926 33 20.0002 33C25.074 33 31 31.6726 31 27.9315C30.9996 23.4257 28.1189 19.5641 24.056 17.9903ZM15.8572 13.2047C15.8572 10.9832 17.7156 9.17581 19.9998 9.17581C22.284 9.17581 24.142 10.9832 24.142 13.2047C24.142 15.4262 22.284 17.2332 19.9998 17.2332C17.7156 17.2332 15.8572 15.4262 15.8572 13.2047ZM19.9998 30.8246C15.1679 30.8246 11.2368 29.5268 11.2368 27.9315C11.2368 23.2323 15.1679 19.409 19.9998 19.409C24.8317 19.409 28.7624 23.2323 28.7624 27.9315C28.7624 29.5268 24.8313 30.8246 19.9998 30.8246Z" fill="white" stroke="white" stroke-width="0.5"/>
</svg>
