<svg width="40" height="40" viewBox="0 0 40 40" fill="none" xmlns="http://www.w3.org/2000/svg">
<path d="M11.5964 15.6902C12.0013 15.6902 12.4063 15.6902 12.8141 15.693C13.7758 15.693 14.7348 15.6958 15.6966 15.6958C16.8327 15.6986 17.9689 15.6986 19.105 15.7014C20.019 15.7014 20.933 15.7042 21.847 15.7042C22.356 15.7042 22.8706 15.6902 23.3796 15.7239C23.5646 15.7346 23.7368 15.7492 23.7368 15.7492C24.4792 15.8505 25.2076 16.0473 25.8994 16.337C25.8319 16.3088 25.7644 16.2807 25.6969 16.2526C26.0991 16.4213 26.4872 16.621 26.8612 16.8488C27.0412 16.9585 27.2155 17.0766 27.3871 17.1975C27.5149 17.2888 27.6395 17.3842 27.7583 17.4872C28.0845 17.7628 28.3882 18.0609 28.6695 18.3815C28.7398 18.4602 28.8073 18.5418 28.8719 18.6205C28.9029 18.6599 28.9338 18.6964 28.9647 18.7358C28.9872 18.7639 29.0435 18.8371 28.9563 18.7246C28.8579 18.598 28.9479 18.7133 28.9704 18.7414C29.0997 18.9158 29.2235 19.093 29.3388 19.2758C29.6003 19.6863 29.8253 20.1166 30.0137 20.5638C29.9856 20.4963 29.9575 20.4288 29.9293 20.3613C30.219 21.0531 30.4159 21.7787 30.5171 22.5239C30.5059 22.448 30.4974 22.3748 30.4862 22.2989C30.5846 23.0526 30.5846 23.8147 30.4862 24.5684C30.4974 24.4925 30.5059 24.4193 30.5171 24.3434C30.4159 25.0858 30.219 25.8142 29.9293 26.506C29.9575 26.4385 29.9856 26.371 30.0137 26.3035C29.845 26.7057 29.6453 27.0938 29.4175 27.4678C29.3078 27.6478 29.1897 27.8222 29.0688 27.9937C29.0407 28.0331 29.0097 28.0753 28.9816 28.1146C28.9619 28.1399 28.9451 28.1624 28.9254 28.1877C28.8663 28.2665 29.0491 28.0274 28.9901 28.1062C28.9197 28.1934 28.8523 28.2805 28.7791 28.3649C28.5035 28.6911 28.2054 28.9949 27.8848 29.2761C27.8061 29.3464 27.7246 29.4139 27.6458 29.4786C27.6064 29.5095 27.5699 29.5404 27.5305 29.5714C27.5024 29.5939 27.4293 29.6501 27.5418 29.5629C27.6683 29.4645 27.553 29.5545 27.5249 29.577C27.3505 29.7064 27.1734 29.8301 26.9906 29.9454C26.58 30.2069 26.1497 30.4319 25.7026 30.6203C25.77 30.5922 25.8375 30.5641 25.905 30.536C25.2132 30.8256 24.4877 31.0225 23.7424 31.1237C23.8183 31.1125 23.8915 31.104 23.9674 31.0928C23.2896 31.1828 22.6063 31.1687 21.9257 31.1687C20.9189 31.1687 19.9121 31.1687 18.9054 31.1687C17.6089 31.1687 16.3097 31.1687 15.0132 31.1687C13.863 31.1687 12.7128 31.1687 11.5626 31.1687C10.9974 31.1687 10.4321 31.1575 9.86964 31.1687C9.86121 31.1687 9.85277 31.1687 9.84433 31.1687C9.40281 31.1687 8.98098 31.5568 9.00066 32.0124C9.02035 32.4708 9.37188 32.8561 9.84433 32.8561C10.6936 32.8561 11.5457 32.8561 12.395 32.8561C14.1527 32.8561 15.9075 32.8561 17.6652 32.8561C19.1332 32.8561 20.6011 32.8561 22.0719 32.8561C22.325 32.8561 22.5782 32.8561 22.8313 32.8561C24.1811 32.8532 25.4944 32.5523 26.7262 32.004C29.1363 30.9297 31.0008 28.7839 31.8107 26.2839C32.6432 23.7163 32.2804 20.8112 30.8602 18.5193C29.4738 16.2779 27.1396 14.6299 24.5327 14.1715C23.3375 13.9606 22.1198 14.0112 20.9105 14.0112C19.1753 14.0084 17.4374 14.0056 15.7022 14.0056C14.403 14.0028 13.1065 14.0028 11.8073 14C11.7398 14 11.6695 14 11.602 14C11.1605 14 10.7386 14.3881 10.7583 14.8437C10.7752 15.3049 11.1239 15.6902 11.5964 15.6902Z" fill="white"/>
<path d="M18.5779 20.7182C17.827 19.9617 17.0733 19.2052 16.3225 18.4459C15.1301 17.2479 13.9405 16.0471 12.7481 14.8491C12.4725 14.5707 12.1969 14.2951 11.9213 14.0167C11.9213 14.4132 11.9213 14.8125 11.9213 15.209C12.675 14.461 13.4287 13.7129 14.1796 12.9649C15.3719 11.7809 16.5643 10.597 17.7539 9.41303C18.0267 9.14024 18.3023 8.86745 18.5751 8.59748C18.8901 8.28532 18.9097 7.71162 18.5751 7.40509C18.2376 7.09574 17.7173 7.07324 17.3827 7.40509C16.629 8.15314 15.8753 8.9012 15.1245 9.64925C13.9321 10.8332 12.7397 12.0172 11.5501 13.2011C11.2773 13.4739 11.0017 13.7467 10.7289 14.0167C10.4055 14.3373 10.4083 14.8856 10.7289 15.209C11.4798 15.9655 12.2335 16.722 12.9844 17.4813C14.1767 18.6794 15.3663 19.8802 16.5587 21.0782C16.8343 21.3566 17.1099 21.6322 17.3855 21.9106C17.6977 22.2228 18.2714 22.2453 18.5779 21.9106C18.8872 21.576 18.9097 21.0529 18.5779 20.7182Z" fill="white"/>
<path d="M11.5964 15.6902C12.0013 15.6902 12.4063 15.6902 12.8141 15.693C13.7758 15.693 14.7348 15.6958 15.6966 15.6958C16.8327 15.6986 17.9689 15.6986 19.105 15.7014C20.019 15.7014 20.933 15.7042 21.847 15.7042C22.356 15.7042 22.8706 15.6902 23.3796 15.7239C23.5646 15.7346 23.7368 15.7492 23.7368 15.7492C24.4792 15.8505 25.2076 16.0473 25.8994 16.337C25.8319 16.3088 25.7644 16.2807 25.6969 16.2526C26.0991 16.4213 26.4872 16.621 26.8612 16.8488C27.0412 16.9585 27.2155 17.0766 27.3871 17.1975C27.5149 17.2888 27.6395 17.3842 27.7583 17.4872C28.0845 17.7628 28.3882 18.0609 28.6695 18.3815C28.7398 18.4602 28.8073 18.5418 28.8719 18.6205C28.9029 18.6599 28.9338 18.6964 28.9647 18.7358C28.9872 18.7639 29.0435 18.8371 28.9563 18.7246C28.8579 18.598 28.9479 18.7133 28.9704 18.7414C29.0997 18.9158 29.2235 19.093 29.3388 19.2758C29.6003 19.6863 29.8253 20.1166 30.0137 20.5638C29.9856 20.4963 29.9575 20.4288 29.9293 20.3613C30.219 21.0531 30.4159 21.7787 30.5171 22.5239C30.5059 22.448 30.4974 22.3748 30.4862 22.2989C30.5846 23.0526 30.5846 23.8147 30.4862 24.5684C30.4974 24.4925 30.5059 24.4193 30.5171 24.3434C30.4159 25.0858 30.219 25.8142 29.9293 26.506C29.9575 26.4385 29.9856 26.371 30.0137 26.3035C29.845 26.7057 29.6453 27.0938 29.4175 27.4678C29.3078 27.6478 29.1897 27.8222 29.0688 27.9937C29.0407 28.0331 29.0097 28.0753 28.9816 28.1146C28.9619 28.1399 28.9451 28.1624 28.9254 28.1877C28.8663 28.2665 29.0491 28.0274 28.9901 28.1062C28.9197 28.1934 28.8523 28.2805 28.7791 28.3649C28.5035 28.6911 28.2054 28.9949 27.8848 29.2761C27.8061 29.3464 27.7246 29.4139 27.6458 29.4786C27.6064 29.5095 27.5699 29.5404 27.5305 29.5714C27.5024 29.5939 27.4293 29.6501 27.5418 29.5629C27.6683 29.4645 27.553 29.5545 27.5249 29.577C27.3505 29.7064 27.1734 29.8301 26.9906 29.9454C26.58 30.2069 26.1497 30.4319 25.7026 30.6203C25.77 30.5922 25.8375 30.5641 25.905 30.536C25.2132 30.8256 24.4877 31.0225 23.7424 31.1237C23.8183 31.1125 23.8915 31.104 23.9674 31.0928C23.2896 31.1828 22.6063 31.1687 21.9257 31.1687C20.9189 31.1687 19.9121 31.1687 18.9054 31.1687C17.6089 31.1687 16.3097 31.1687 15.0132 31.1687C13.863 31.1687 12.7128 31.1687 11.5626 31.1687C10.9974 31.1687 10.4321 31.1575 9.86964 31.1687C9.86121 31.1687 9.85277 31.1687 9.84433 31.1687C9.40281 31.1687 8.98098 31.5568 9.00066 32.0124C9.02035 32.4708 9.37188 32.8561 9.84433 32.8561C10.6936 32.8561 11.5457 32.8561 12.395 32.8561C14.1527 32.8561 15.9075 32.8561 17.6652 32.8561C19.1332 32.8561 20.6011 32.8561 22.0719 32.8561C22.325 32.8561 22.5782 32.8561 22.8313 32.8561C24.1811 32.8532 25.4944 32.5523 26.7262 32.004C29.1363 30.9297 31.0008 28.7839 31.8107 26.2839C32.6432 23.7163 32.2804 20.8112 30.8602 18.5193C29.4738 16.2779 27.1396 14.6299 24.5327 14.1715C23.3375 13.9606 22.1198 14.0112 20.9105 14.0112C19.1753 14.0084 17.4374 14.0056 15.7022 14.0056C14.403 14.0028 13.1065 14.0028 11.8073 14C11.7398 14 11.6695 14 11.602 14C11.1605 14 10.7386 14.3881 10.7583 14.8437C10.7752 15.3049 11.1239 15.6902 11.5964 15.6902Z" stroke="white"/>
<path d="M18.5779 20.7182C17.827 19.9617 17.0733 19.2052 16.3225 18.4459C15.1301 17.2479 13.9405 16.0471 12.7481 14.8491C12.4725 14.5707 12.1969 14.2951 11.9213 14.0167C11.9213 14.4132 11.9213 14.8125 11.9213 15.209C12.675 14.461 13.4287 13.7129 14.1796 12.9649C15.3719 11.7809 16.5643 10.597 17.7539 9.41303C18.0267 9.14024 18.3023 8.86745 18.5751 8.59748C18.8901 8.28532 18.9097 7.71162 18.5751 7.40509C18.2376 7.09574 17.7173 7.07324 17.3827 7.40509C16.629 8.15314 15.8753 8.9012 15.1245 9.64925C13.9321 10.8332 12.7397 12.0172 11.5501 13.2011C11.2773 13.4739 11.0017 13.7467 10.7289 14.0167C10.4055 14.3373 10.4083 14.8856 10.7289 15.209C11.4798 15.9655 12.2335 16.722 12.9844 17.4813C14.1767 18.6794 15.3663 19.8802 16.5587 21.0782C16.8343 21.3566 17.1099 21.6322 17.3855 21.9106C17.6977 22.2228 18.2714 22.2453 18.5779 21.9106C18.8872 21.576 18.9097 21.0529 18.5779 20.7182Z" stroke="white"/>
</svg>
