<svg width="40" height="40" viewBox="0 0 40 40" fill="none" xmlns="http://www.w3.org/2000/svg">
<path fill-rule="evenodd" clip-rule="evenodd" d="M31.6111 12C31.2278 12 30.8805 12.168 30.6278 12.441L17.6361 26.472L10.2667 19.863C10.025 19.647 9.72778 19.5 9.38889 19.5C8.62222 19.5 8 20.172 8 21C8 21.462 8.20557 21.861 8.51113 22.137L16.8445 29.637C17.0861 29.853 17.3833 30 17.7222 30C18.1056 30 18.4528 29.832 18.7056 29.559L32.5917 14.562C32.8444 14.289 33 13.914 33 13.5C33 12.672 32.3778 12 31.6111 12Z" fill="#454545"/>
</svg>
