<svg width="155" height="101" viewBox="0 0 155 101" fill="none" xmlns="http://www.w3.org/2000/svg">
<path d="M77.3187 5.53159L77.369 5.53412L77.4193 5.53159L148.983 1.92769C151.428 1.8046 153.408 3.88578 153.165 6.32099L148.802 49.9112C148.762 50.3085 148.762 50.7089 148.802 51.1062L153.165 94.6964C153.408 97.1316 151.428 99.2128 148.983 99.0897L77.4193 95.4858L77.369 95.4833L77.3187 95.4858L5.8132 99.0868C3.35294 99.2107 1.36646 97.1027 1.63604 94.6541L6.424 51.1653C6.47205 50.7289 6.47205 50.2885 6.424 49.8521L1.63604 6.36332C1.36646 3.91473 3.35294 1.80674 5.8132 1.93064L77.3187 5.53159Z" fill="white" stroke="#ADADAD" stroke-width="2"/>
</svg>
