<svg width="155" height="128" viewBox="0 0 155 128" fill="none" xmlns="http://www.w3.org/2000/svg">
<path d="M77.6144 6.02356L77.6788 6.02772L77.7432 6.02356L149.357 1.40334C151.787 1.24657 153.792 3.27899 153.602 5.70659L149.09 63.459C149.066 63.77 149.066 64.0825 149.09 64.3936L153.602 122.146C153.792 124.574 151.787 126.606 149.357 126.449L77.7432 121.829L77.6788 121.825L77.6144 121.829L6.04625 126.446C3.60381 126.604 1.59384 124.551 1.80341 122.112L6.7596 64.44C6.78898 64.0982 6.78898 63.7544 6.7596 63.4125L1.80341 5.74045C1.59384 3.30193 3.60381 1.24868 6.04625 1.40626L77.6144 6.02356Z" fill="white" stroke="#ADADAD" stroke-width="2"/>
</svg>
