<svg width="95" height="80" viewBox="0 0 95 80" fill="none" xmlns="http://www.w3.org/2000/svg">
<path d="M47.4496 4.65135L47.5161 4.65578L47.5825 4.65135L88.4378 1.93092C90.8668 1.76918 92.8759 3.79652 92.6921 6.224L90.1489 39.8221C90.1261 40.1236 90.1261 40.4264 90.1489 40.7279L92.6921 74.326C92.8759 76.7535 90.8668 78.7808 88.4378 78.6191L47.5825 75.8987L47.5161 75.8942L47.4496 75.8987L6.63832 78.6161C4.19717 78.7787 2.18335 76.7312 2.38636 74.2931L5.17741 40.7729C5.205 40.4415 5.205 40.1085 5.17741 39.7771L2.38636 6.25692C2.18335 3.8188 4.19717 1.7713 6.63832 1.93385L47.4496 4.65135Z" fill="white" stroke="#ADADAD" stroke-width="2"/>
</svg>
